<?xml version="1.0" encoding="utf-8"?>
<!-- Generator: Adobe Illustrator 24.1.0, SVG Export Plug-In . SVG Version: 6.00 Build 0)  -->
<svg version="1.1" id="Layer_1" xmlns="http://www.w3.org/2000/svg" xmlns:xlink="http://www.w3.org/1999/xlink" x="0px" y="0px"
	 viewBox="0 0 261 194" style="enable-background:new 0 0 261 194;" xml:space="preserve">
<style type="text/css">
	.st0{fill:url(#Path_10_1_);}
</style>
<g id="Group_3" transform="translate(-820.339 -532.825)">
	<g id="Group_2" transform="translate(820.339 532.825)">
		<g id="Group_1">
			<path id="Path_1" d="M106.4,104.1c-1.1,0-1.4-0.8-1.4-2.3V87.3c0-5-2.8-7.9-7.5-7.9c-5.6,0-8.1,4.3-8.2,8.6v0.2h3.7V88
				c-0.1-1.4,0.5-2.8,1.4-3.9c0.7-0.8,1.8-1.2,2.8-1.2c2.2,0,3.6,1.7,3.6,4.7v1.4l-4.5,2.1c-5.1,2.4-8.4,4.3-8.4,9.3
				c0,4.4,2.8,7.3,6.9,7.3c2.5-0.1,4.8-1.3,6.3-3.2c0.5,2,2.2,3.3,4.3,3.2c0.8,0,1.6-0.2,2.3-0.5l0.1,0v-3.5l-0.3,0.1
				C107.3,104,106.9,104.1,106.4,104.1z M101,92.5v8.5c-1.1,1.9-3,3.1-5.1,3.3c-1.9,0.1-3.6-1.4-3.7-3.3c0-0.2,0-0.4,0-0.6
				c0-3.3,2.9-5.1,5.5-6.3L101,92.5z"/>
			<path id="Path_2" d="M127.3,71.3h-3.9l-0.1,8.6h-3.6v3.7h3.6v17.8c0,4,1.9,6.2,5.3,6.2c1.4,0,2.8-0.4,4-1.1l0.1,0v-3.7l-0.3,0.2
				c-0.8,0.7-1.8,1.1-2.8,1.1c-1.8,0-2.2-1.5-2.2-2.8V83.6h5.8V80h-5.8V71.3z"/>
			<path id="Path_3" d="M79.8,100.7c-1.5,2.2-3.3,3.5-5,3.5c-2.2,0-3-2.2-3-4.2V79.9h-4.1v20.3c0,4.7,2.1,7.4,5.9,7.4
				c2.5,0,4.8-1.2,6.3-3.2l0.1,2.7h3.9V79.9h-4.1L79.8,100.7z"/>
			<path id="Path_4" d="M58.8,82.4c-1-1.9-3.1-3.1-5.3-3c-2.4,0-4.6,1.2-5.9,3.2c-1.9,2.5-2.8,6.2-2.8,11c0,10.4,4.2,14.1,8.2,14.1
				c2.1,0.1,4.1-0.9,5.4-2.5v21.6h4.1V79.9h-3.5L58.8,82.4z M58.3,86.2v14.9c-1.1,2-2.5,3-4.3,3c-3.4,0-5.1-3.5-5.1-10.5
				c0-6.7,1.9-10.6,5.2-10.6C56.1,83,57.8,84.3,58.3,86.2z"/>
			<rect id="Rectangle_2" x="111.3" y="67.2" width="4.1" height="39.9"/>
			<rect id="Rectangle_3" x="152.4" y="79.9" width="4.1" height="27.2"/>
			<rect id="Rectangle_4" x="152.5" y="71.3" width="4" height="4.7"/>
			<path id="Path_5" d="M141.2,83.1l-0.2-3.2h-3.9v27.3h4.1V87.6c1.8-3.7,4.2-4.2,6.5-4.3l1,0.1v-4h-1.1
				C144.7,79.4,143.1,80.3,141.2,83.1z"/>
			<path id="Path_6" d="M189.7,91l-0.1,0.1l0,0L189.7,91L189.7,91c-2.6-1.3-4.4-2.4-4.4-4.7c-0.1-1.8,1.3-3.3,3.1-3.3
				c0.1,0,0.2,0,0.4,0c1,0,2,0.4,2.7,1.1c0.9,1.1,1.2,2.5,1,3.8l0,0.2h3.8l0-0.2c0.2-2.3-0.5-4.6-2.1-6.3c-1.4-1.4-3.4-2.2-5.4-2.2
				c-4.4,0-7.4,2.9-7.4,7.1c0,4.5,3.6,6.5,6.3,7.9c2.6,1.4,5.1,2.8,5.1,5.6c0.1,2.2-1.6,4-3.8,4.1c-0.1,0-0.2,0-0.3,0
				c-2.6,0-4.5-2.2-4.5-5.3v-0.2h-3.8v0.2c0.1,5.5,3.3,8.9,8.3,8.9c4.2,0.3,7.7-2.9,8-7c0-0.3,0-0.6,0-0.9
				C196.7,94.7,193,92.7,189.7,91z"/>
			<path id="Path_7" d="M173.8,98.6c0,1.6-0.5,3.2-1.5,4.5c-0.6,0.7-1.5,1-2.4,1c-3.1,0-4.8-3.6-4.8-10.5c0-6.9,1.7-10.6,4.8-10.6
				c0.8,0,1.7,0.3,2.2,0.9c0.9,1.2,1.5,2.6,1.4,4.2h3.8c0.1-2.4-0.7-4.8-2.3-6.6c-1.3-1.4-3.2-2.1-5.1-2c-5.8,0-9,5-9,14.1
				s3.1,14.1,8.8,14.1c4.5,0,7.4-3.4,7.8-9L173.8,98.6z"/>
		</g>
		<path id="Path_8" d="M202.5,105c0.1-0.2,0.1-0.3,0.1-0.5c0-0.3-0.1-0.5-0.3-0.7c-0.2-0.2-0.5-0.3-0.8-0.2h-1.4v2.9h0.7v-1h0.5
			l0.5,1h0.8l-0.6-1.1C202.2,105.3,202.4,105.1,202.5,105z M201.7,104.8c-0.1,0.1-0.3,0.1-0.4,0.1h-0.5v-0.7h0.5
			c0.1,0,0.3,0,0.4,0.1c0.1,0.1,0.1,0.2,0.1,0.3C201.9,104.6,201.8,104.7,201.7,104.8L201.7,104.8z"/>
		<path id="Path_9" d="M203.7,103.9c-0.1-0.3-0.3-0.6-0.6-0.8c-0.2-0.2-0.5-0.4-0.8-0.5c-0.7-0.3-1.4-0.3-2,0
			c-0.3,0.1-0.6,0.3-0.8,0.5c-0.2,0.2-0.4,0.5-0.5,0.8c-0.3,0.7-0.3,1.4,0,2.1c0.1,0.3,0.3,0.6,0.5,0.8c0.2,0.2,0.5,0.4,0.8,0.5
			c0.7,0.3,1.4,0.3,2,0c0.3-0.1,0.6-0.3,0.8-0.5c0.2-0.2,0.4-0.5,0.6-0.8C204,105.4,204,104.6,203.7,103.9z M203.2,105.8
			c-0.1,0.2-0.2,0.5-0.4,0.7c-0.2,0.2-0.4,0.3-0.6,0.4c-0.5,0.2-1.1,0.2-1.6,0c-0.2-0.1-0.5-0.2-0.6-0.4c-0.2-0.2-0.3-0.4-0.4-0.7
			c-0.2-0.5-0.2-1.2,0-1.7c0.1-0.2,0.2-0.5,0.4-0.7c0.2-0.2,0.4-0.3,0.6-0.4c0.5-0.2,1.1-0.2,1.6,0c0.2,0.1,0.5,0.2,0.6,0.4
			c0.2,0.2,0.3,0.4,0.4,0.7C203.4,104.7,203.4,105.3,203.2,105.8z"/>
	</g>
	
		<linearGradient id="Path_10_1_" gradientUnits="userSpaceOnUse" x1="332.4766" y1="1100.1184" x2="333.5133" y2="1098.7297" gradientTransform="matrix(24.608 0 0 -13.3 -7157.0747 15235.7285)">
		<stop  offset="4.200000e-02" style="stop-color:#21DBAA"/>
		<stop  offset="0.358" style="stop-color:#00B4EF"/>
		<stop  offset="0.433" style="stop-color:#01A7EC"/>
		<stop  offset="0.568" style="stop-color:#0487E4"/>
		<stop  offset="0.68" style="stop-color:#0768DD"/>
		<stop  offset="0.965" style="stop-color:#5F1AE5"/>
	</linearGradient>
	<path id="Path_10" class="st0" d="M1046.6,604l-3.5,12.4h0l-3.8-12.4h-8.3l-2.9,5.1l-3-5.1h-4.2l4.9,8l-5.4,8.9h3.9l3.5-5.9
		l3.6,5.9h6.4v-11.7h0c0.1,0.5,0.2,0.9,0.3,1.3c0.1,0.3,0.2,0.7,0.2,1c0.1,0.3,0.2,0.6,0.2,0.8c0.1,0.3,0.2,0.6,0.3,0.9l2.5,7.8h3.3
		l2.5-7.8c0.2-0.6,0.4-1.2,0.5-1.8c0.2-0.6,0.3-1.3,0.4-2h0v11.5h3.6V604L1046.6,604z M1030,612l4.4-7.3v14.5L1030,612z"/>
</g>
</svg>
